<svg xmlns="http://www.w3.org/2000/svg" viewBox="0 0 620 620" aria-hidden="true">
  <g fill="none" stroke="#D4AF37" stroke-width="18" stroke-linecap="round" stroke-linejoin="round" opacity="0.12">
    <circle cx="310" cy="310" r="278"/>
    <path d="M310 58 A252 252 0 0 1 562 310"/>
    <path d="M310 100 A210 210 0 0 1 520 310"/>
    <path d="M310 142 A168 168 0 0 1 478 310"/>
    <path d="M310 184 A126 126 0 0 1 436 310"/>
    <path d="M310 226 A84 84 0 0 1 394 310"/>
    <path d="M310 268 A42 42 0 0 1 352 310"/>
    <path d="M310 58 A252 252 0 0 0 58 310"/>
    <path d="M310 100 A210 210 0 0 0 100 310"/>
    <path d="M310 142 A168 168 0 0 0 142 310"/>
    <path d="M310 184 A126 126 0 0 0 184 310"/>
    <path d="M310 226 A84 84 0 0 0 226 310"/>
    <path d="M310 268 A42 42 0 0 0 268 310"/>
    <path d="M58 310 A252 252 0 0 0 310 562"/>
    <path d="M100 310 A210 210 0 0 0 310 520"/>
    <path d="M142 310 A168 168 0 0 0 310 478"/>
    <path d="M184 310 A126 126 0 0 0 310 436"/>
    <path d="M226 310 A84 84 0 0 0 310 394"/>
    <path d="M268 310 A42 42 0 0 0 310 352"/>
    <path d="M310 562 A252 252 0 0 0 562 310"/>
    <path d="M310 520 A210 210 0 0 0 520 310"/>
    <path d="M310 478 A168 168 0 0 0 478 310"/>
    <path d="M310 436 A126 126 0 0 0 436 310"/>
    <path d="M310 394 A84 84 0 0 0 394 310"/>
    <path d="M310 352 A42 42 0 0 0 352 310"/>
    <path d="M310 58 V130"/>
    <path d="M562 310 H490"/>
    <path d="M310 562 V490"/>
    <path d="M58 310 H130"/>
    <path d="M310 268 H344 V310"/>
  </g>
</svg>