<svg xmlns="http://www.w3.org/2000/svg" viewBox="0 0 470 80" role="img" aria-labelledby="t"><title id="t">Ariadne</title><g fill="none" stroke="#D4AF37" stroke-width="3.2" stroke-linecap="round" stroke-linejoin="round"><path d="M10 56c7-10 21-8 30 0 7 6 18 5 25-2"/><circle cx="40" cy="30" r="19"/><path d="M24 22c10-8 24-9 36-3"/><path d="M22 32c12-9 26-9 39-4"/><path d="M27 42c10-6 23-6 33-3"/><path d="M31 14c-3 11 0 22 9 34"/><path d="M42 12c-4 12-1 25 10 37"/><path d="M54 17c-7 9-9 20-6 30"/></g><text x="86" y="45" fill="#182338" font-family="Inter, Arial, sans-serif" font-size="38" font-weight="500" letter-spacing="10">ARIADNE</text></svg>