<svg xmlns="http://www.w3.org/2000/svg" viewBox="0 0 620 620" aria-hidden="true">
  <g fill="none" stroke="#D4AF37" stroke-width="16" stroke-linecap="round" stroke-linejoin="round" opacity="0.10">
    <circle cx="310" cy="310" r="270"/>
    <path d="M310 72 A238 238 0 0 1 548 310"/>
    <path d="M310 118 A192 192 0 0 1 502 310"/>
    <path d="M310 164 A146 146 0 0 1 456 310"/>
    <path d="M310 210 A100 100 0 0 1 410 310"/>
    <path d="M310 256 A54 54 0 0 1 364 310"/>
    <path d="M310 72 A238 238 0 0 0 72 310"/>
    <path d="M310 118 A192 192 0 0 0 118 310"/>
    <path d="M310 164 A146 146 0 0 0 164 310"/>
    <path d="M310 210 A100 100 0 0 0 210 310"/>
    <path d="M310 256 A54 54 0 0 0 256 310"/>
    <path d="M72 310 A238 238 0 0 0 310 548"/>
    <path d="M118 310 A192 192 0 0 0 310 502"/>
    <path d="M164 310 A146 146 0 0 0 310 456"/>
    <path d="M210 310 A100 100 0 0 0 310 410"/>
    <path d="M256 310 A54 54 0 0 0 310 364"/>
    <path d="M310 548 A238 238 0 0 0 548 310"/>
    <path d="M310 502 A192 192 0 0 0 502 310"/>
    <path d="M310 456 A146 146 0 0 0 456 310"/>
    <path d="M310 410 A100 100 0 0 0 410 310"/>
    <path d="M310 364 A54 54 0 0 0 364 310"/>
    <path d="M310 72v68"/>
    <path d="M548 310h-68"/>
    <path d="M310 548v-68"/>
    <path d="M72 310h68"/>
  </g>
</svg>