<svg xmlns="http://www.w3.org/2000/svg" viewBox="0 0 88 72" role="img" aria-labelledby="title desc">
  <title id="title">Ariadne wolkluwen</title>
  <desc id="desc">Een verfijnd gouden wolkluwen met een los draadje.</desc>
  <g fill="none" stroke="#D4AF37" stroke-width="4.2" stroke-linecap="round" stroke-linejoin="round">
    <path d="M7 55c7-13 24-10 35 0 8 7 21 7 30-2"/>
    <circle cx="52" cy="32" r="24"/>
    <path d="M31 23c12-11 30-14 46-6"/>
    <path d="M29 34c15-13 33-13 49-8"/>
    <path d="M33 45c13-8 29-9 43-5"/>
    <path d="M38 12c-4 14 0 30 11 45"/>
    <path d="M51 8c-5 16-1 33 13 49"/>
    <path d="M67 13c-10 12-13 27-8 41"/>
    <path d="M30 22c10 17 25 28 45 33"/>
  </g>
</svg>